<svg xmlns="http://www.w3.org/2000/svg" viewBox="0 0 240 240">
  <defs>
    <radialGradient id="plate" cx="50%" cy="42%" r="60%">
      <stop offset="0%" stop-color="#ffffff"/><stop offset="100%" stop-color="#f1e2c8"/>
    </radialGradient>
    <linearGradient id="bowl" x1="0" y1="0" x2="0" y2="1">
      <stop offset="0%" stop-color="#ff9d5c"/><stop offset="100%" stop-color="#e2622b"/>
    </linearGradient>
  </defs>
  <ellipse cx="120" cy="206" rx="86" ry="14" fill="rgba(120,60,0,.18)"/>
  <circle cx="120" cy="120" r="104" fill="url(#plate)"/>
  <path d="M40 128a80 80 0 0 0 160 0z" fill="url(#bowl)"/>
  <path d="M40 128a80 80 0 0 0 160 0z" fill="none" stroke="#b94d1e" stroke-width="5"/>
  <ellipse cx="120" cy="126" rx="76" ry="26" fill="#7fbf4d"/>
  <circle cx="86" cy="112" r="22" fill="#4fae3c"/>
  <circle cx="150" cy="112" r="24" fill="#63c44a"/>
  <circle cx="120" cy="102" r="24" fill="#57b53f"/>
  <circle cx="102" cy="128" r="14" fill="#d94436"/>
  <circle cx="146" cy="132" r="13" fill="#e05a45"/>
  <circle cx="124" cy="138" r="12" fill="#f2c14e"/>
  <circle cx="78" cy="132" r="11" fill="#f2c14e"/>
  <path d="M96 118q6 8 16 2" stroke="#2e7d32" stroke-width="5" fill="none" stroke-linecap="round"/>
  <path d="M138 122q8 6 14 0" stroke="#2e7d32" stroke-width="5" fill="none" stroke-linecap="round"/>
</svg>
