<svg xmlns="http://www.w3.org/2000/svg" viewBox="0 0 512 512">
  <defs>
    <linearGradient id="bg" x1="0" y1="0" x2="1" y2="1">
      <stop offset="0%" stop-color="#ffb347"/><stop offset="100%" stop-color="#ff6a1f"/>
    </linearGradient>
  </defs>
  <rect width="512" height="512" rx="96" fill="url(#bg)"/>
  <circle cx="256" cy="268" r="170" fill="rgba(255,255,255,.16)"/>
  <!-- spoon -->
  <rect x="316" y="150" width="34" height="190" rx="17" fill="#8b5a2b" transform="rotate(24 333 245)"/>
  <ellipse cx="376" cy="146" rx="38" ry="52" fill="#c98a4b" transform="rotate(24 376 146)"/>
  <!-- whisk -->
  <rect x="150" y="150" width="30" height="180" rx="15" fill="#e8e8e8" transform="rotate(-22 165 240)"/>
  <path d="M120 150q-18 44 12 86 34-42 16-86z" fill="#ffffff" transform="rotate(-22 138 190)"/>
  <!-- chef hat -->
  <path d="M256 120c-46 0-82 34-82 76 0 12 3 23 9 32-28 8-48 34-48 65 0 39 34 68 76 68h90c42 0 76-29 76-68 0-31-20-57-48-65 6-9 9-20 9-32 0-42-36-76-82-76z" fill="#ffffff"/>
  <rect x="172" y="348" width="168" height="34" rx="17" fill="#ffffff"/>
  <rect x="188" y="392" width="136" height="30" rx="15" fill="#ffffff"/>
</svg>
